<svg aria-hidden="true" style="position:absolute;width:0;height:0" xmlns="http://www.w3.org/2000/svg" overflow="hidden"><defs><symbol id="icon-logo-1-1" viewBox="0 0 29 32"><path fill="var(--color1, #afb1b8)" d="M3.84 0l4.677 4.428h13.046v12.351l4.677 4.428V.001H3.84z"/><path fill="var(--color1, #afb1b8)" d="M0 4.241v20.6h21.76v-8.188L8.655 4.247 0 4.242zm17.615 17.587H3.443V7.974h1.002V20.89h13.17v.938zM6.266 28.662l.523-1.078h.438l-.763 1.438v.837h-.397v-.837l-.764-1.438h.439l.524 1.078zm2.247.667h-.881l-.184.53h-.411l.859-2.275h.355l.861 2.275H8.7l-.186-.53zm-.77-.319h.659l-.33-.944-.33.944zm2.328.234v-.004c0-.106.032-.205.087-.287l-.001.002c.057-.089.17-.193.339-.314-.088-.111-.151-.206-.186-.284s-.052-.154-.052-.227c0-.178.054-.319.162-.422s.254-.156.438-.156c.166 0 .301.049.406.147.106.097.159.217.159.361v.004c0 .096-.027.185-.073.261l.001-.002c-.048.079-.127.158-.236.238l-.155.113.439.519c.064-.125.095-.264.095-.417h.33c0 .28-.066.51-.197.689l.334.395h-.441l-.128-.152c-.162.122-.356.183-.581.183s-.405-.059-.541-.178c-.134-.12-.202-.276-.202-.467zm.753.343c.128 0 .248-.043.359-.128l-.497-.586-.048.034c-.125.095-.188.203-.188.325 0 .105.034.191.102.256s.158.098.272.098zm-.209-1.466c0 .087.054.197.161.33l.173-.119.048-.039c.065-.057.097-.131.097-.22 0-.059-.022-.11-.067-.152-.045-.043-.102-.064-.17-.064-.074 0-.133.025-.177.075s-.066.113-.066.189zm4.133.997c-.023.243-.113.432-.269.569-.156.135-.364.203-.623.203-.181 0-.341-.043-.48-.128-.137-.086-.244-.209-.319-.367s-.114-.342-.117-.552v-.212c0-.215.038-.404.114-.567s.185-.29.327-.378c.143-.088.307-.133.494-.133.251 0 .453.068.606.205s.242.329.267.578h-.394c-.019-.164-.067-.281-.144-.353-.076-.073-.188-.109-.336-.109-.172 0-.304.063-.397.189-.092.125-.139.309-.141.552v.202c0 .246.044.433.131.563s.218.194.387.194c.155 0 .272-.035.35-.105s.128-.186.148-.348h.394zm2.17-.338c0 .223-.039.419-.116.588-.077.168-.188.297-.331.388-.143.09-.307.134-.494.134-.184 0-.349-.045-.494-.134-.144-.091-.255-.219-.334-.386-.078-.167-.118-.359-.119-.576v-.128c0-.222.039-.418.117-.588.079-.17.19-.299.333-.389.144-.091.308-.136.494-.136s.349.045.492.134c.144.088.255.217.333.384s.118.361.119.583v.127zm-.395-.118c0-.252-.048-.445-.144-.58-.095-.134-.23-.202-.405-.202-.171 0-.305.067-.402.202-.096.133-.145.322-.147.567v.131c0 .25.048.443.145.58s.233.205.406.205c.175 0 .309-.067.403-.2.095-.133.142-.328.142-.584v-.119z"/></symbol><symbol id="icon-logo-2-1" viewBox="0 0 25 32"><path fill="var(--color1, #afb1b8)" d="M10.447 1.806h.084c.156 0 .324.016.49.03.807.058 1.552.175 2.274.348l-.095-.019V.403c-.652-.172-1.42-.299-2.207-.356l-.042-.002c-.288-.022-.595-.036-.909-.044h-.263C8.172.007 6.617.219 5.136.612l.128-.029c-1.816.46-3.411 1.128-4.875 1.995l.085-.046v17.475c1.312-.729 2.832-1.338 4.431-1.75l.135-.029c1.123-.3 2.434-.51 3.78-.586l.052-.002h.051c.191-.01.42-.017.65-.019h.006v-1.79c-1.78.024-3.493.264-5.129.695l.147-.033c-.602.157-1.185.325-1.731.513l-.623.211V3.592l.266-.128c1.89-.918 4.096-1.512 6.424-1.649l.047-.002c.008-.001.018-.001.028-.001s.02 0 .029.001h-.001c.248-.012.497-.019.741-.019h.28c.129.003.258.006.388.014z"/><path fill="var(--color1, #afb1b8)" d="M14.838 3.651c-.409 0-.814-.014-1.205-.044-.467-.034-.947-.091-1.401-.167-.363-.062-.638-.119-.91-.184l.096.019V20.55c.995.257 2.137.404 3.314.404h.117-.006c1.607-.007 3.162-.218 4.643-.609l-.128.029c1.817-.461 3.412-1.129 4.877-1.995l-.085.047V1.263c-1.312.728-2.831 1.338-4.429 1.751l-.136.03c-1.423.381-3.057.602-4.743.609h-.004zm6.907.299l.623-.21v13.63l-.266.128c-.903.442-1.962.834-3.065 1.118l-.119.026c-1.221.329-2.624.521-4.07.527h-.004c-.411 0-.819-.017-1.214-.052l-.427-.038V5.062l.497.033c.361.024.735.034 1.141.034 1.841-.007 3.622-.248 5.32-.697l-.147.033c.777-.203 1.355-.38 1.924-.576l-.193.058zM1.685 25.977a.915.915 0 00-.311-.212l-.006-.002a.9.9 0 00-.343-.067c-.012 0-.023 0-.035.001h.002-.014c-.139 0-.272.028-.393.078l.007-.003a.9312.9312 0 00-.311.205.8986.8986 0 00-.199.307l-.002.006c-.045.111-.072.24-.072.375v.012-.001 2.335c-.006.165.026.328.092.479.055.12.135.226.234.313.093.079.203.135.321.166.114.032.231.048.349.049h.009c.134 0 .26-.03.373-.084l-.005.002a.99.99 0 00.311-.216c.084-.088.153-.192.201-.306l.002-.007a.9335.9335 0 00.075-.368v-.266h-.61v.222c0 .07-.013.137-.037.198l.001-.004a.3669.3669 0 01-.089.131.396.396 0 01-.125.067l-.003.001a.4275.4275 0 01-.127.022.3093.3093 0 01-.162-.025l.002.001a.319.319 0 01-.126-.1l-.001-.001a.5477.5477 0 01-.081-.289c0-.008 0-.017.001-.025v.001-2.177-.023c0-.118.028-.23.077-.33l-.002.004a.321.321 0 01.127-.113l.002-.001c.039-.019.084-.03.132-.03.013 0 .026.001.039.002H.986h.012c.107 0 .201.051.26.131l.001.001c.063.082.101.187.101.301v.013-.001.202h.604v-.238-.01c0-.143-.027-.281-.077-.406l.003.007a.9679.9679 0 00-.204-.329zm3.625-.027a1.083 1.083 0 00-.694-.257c-.131.001-.256.025-.372.068l.007-.002a.986.986 0 00-.323.192l.001-.001a.9667.9667 0 00-.234.321l-.002.006a1.074 1.074 0 00-.089.431v.022-.001 2.239c-.004.158.026.314.089.459.055.12.136.227.237.313a.939.939 0 00.322.197c.117.043.24.065.364.066.131 0 .256-.024.372-.068l-.007.002c.127-.047.237-.114.331-.198l-.001.001a.958.958 0 00.228-.307l.002-.006c.056-.127.089-.274.089-.43v-.03.002-2.239-.021c0-.156-.033-.304-.092-.438l.003.007a1.027 1.027 0 00-.23-.327zm-.285 3.019a.3841.3841 0 01-.025.179l.001-.003a.3973.3973 0 01-.097.148c-.077.065-.178.105-.287.105s-.21-.04-.288-.105l.001.001a.4041.4041 0 01-.096-.145l-.001-.003a.4017.4017 0 01-.026-.141c0-.012.001-.024.002-.036v.002-2.239a.3841.3841 0 01.025-.179l-.001.003a.3973.3973 0 01.097-.148.4455.4455 0 01.287-.105c.11 0 .21.04.288.105l-.001-.001a.397.397 0 01.097.148c.016.042.026.09.026.141 0 .012-.001.024-.002.036v-.002 2.239zm5.047 1V25.73h-.587l-.771 2.244h-.011l-.777-2.244h-.581v4.239h.606V27.39h.011l.593 1.823h.302l.598-1.823h.011v2.579h.606zm3.441-3.942a.8458.8458 0 00-.337-.23l-.006-.002c-.124-.042-.267-.066-.416-.066h-.024.001-.9v4.239h.604v-1.656h.311c.015.001.032.001.05.001.18 0 .351-.043.501-.12l-.006.003a.8868.8868 0 00.329-.32l.002-.004c.067-.106.115-.23.138-.363l.001-.006c.021-.134.033-.288.033-.445v-.039.002c.001-.021.001-.045.001-.07 0-.19-.022-.375-.063-.552l.003.016a.906.906 0 00-.223-.39zm-.312 1.292a.5417.5417 0 01-.057.224l.001-.003a.3495.3495 0 01-.154.148l-.002.001a.6092.6092 0 01-.253.054c-.011 0-.022 0-.033-.001h.002-.276v-1.441h.311c.008 0 .018-.001.028-.001.089 0 .172.02.248.055l-.004-.002c.062.036.111.09.141.154l.001.002c.033.074.051.155.053.236v.282c0 .099.006.2 0 .291h-.006zm3.173-1.589h-.495l-.934 4.239h.604l.177-.911h.824l.177.911h.604l-.957-4.239zm-.558 2.751l.297-1.537h.011l.296 1.537h-.604zm4.461-.198h-.011l-.912-2.554h-.581v4.239h.604v-2.549h.012l.923 2.549h.568v-4.239h-.604v2.554zm3.691-2.553l-.486 1.685h-.012l-.486-1.685h-.64l.83 2.447v1.792h.604v-1.792l.83-2.447h-.64zM0 31.166h.291v.817h.198v-.817h.29v-.167H.001v.167zm2.447-.168l-.381.984h.21l.081-.224h.392l.084.224h.215l-.391-.984h-.21zm-.031.595l.134-.365.134.365h-.268zm2.45.027h.227v.127a.3778.3778 0 01-.233.083h-.014a.2466.2466 0 01-.194-.094.41.41 0 01-.074-.235c0-.008 0-.015.001-.023v.001c0-.219.095-.329.283-.329.006-.001.013-.001.021-.001.045 0 .086.014.12.038h-.001c.04.029.07.07.082.118v.001l.195-.038c-.042-.192-.181-.289-.417-.289h-.013a.492.492 0 00-.331.127.4818.4818 0 00-.111.17l-.001.003a.4794.4794 0 00-.031.169c0 .013 0 .025.001.038v-.002.023c0 .132.048.253.127.347l-.001-.001c.087.089.208.145.342.145.011 0 .022 0 .033-.001h-.001.016c.155 0 .296-.06.401-.157v-.388h-.427v.166zm2.471-.622h-.199v.984h.69v-.167h-.49v-.817zm2.089 0h-.199v.984h.199v-.984zm2.043.658l-.403-.657h-.193v.984h.185v-.643l.395.643h.198v-.984h-.182v.657zm1.846-.107h.49v-.167h-.49v-.216h.528v-.167h-.727v.984h.747v-.167h-.548v-.266zm4.477-.162h-.388v-.388h-.198v.984h.198v-.43h.388v.43h.198v-.984h-.198v.388zm1.857.162h.492v-.167h-.492v-.216h.529v-.167h-.727v.984h.746v-.167h-.548v-.266zm2.519 0c.171-.027.258-.117.258-.274a.2312.2312 0 00-.096-.218h-.001a.555.555 0 00-.25-.059c-.014 0-.027 0-.04.001h.002-.417v.984h.198v-.412h.039c.005 0 .011-.001.017-.001.039 0 .075.008.108.023l-.002-.001c.029.018.053.042.07.071l.001.001.215.313h.237l-.12-.192a.6968.6968 0 00-.216-.235l-.002-.002zm-.199-.136h-.146v-.247h.156a.52.52 0 01.205.024l-.004-.001c.027.024.043.058.043.096 0 .043-.021.08-.052.104a.537.537 0 01-.164.025c-.013 0-.026 0-.038-.001h.002zm2.098.136h.49v-.167h-.49v-.216h.529v-.167h-.729v.984h.747v-.167h-.548v-.266z"/></symbol><symbol id="icon-logo-3-1" viewBox="0 0 31 32"><path fill="var(--color1, #afb1b8)" d="M4.722 31.103c.012 0 .023.003.033.007h-.001a.106.106 0 01.027.018l.153.161c-.118.128-.262.231-.423.301l-.008.003c-.169.07-.366.11-.572.11-.014 0-.027 0-.041-.001h.002-.03c-.196 0-.383-.038-.554-.106l.01.004a1.2498 1.2498 0 01-.432-.288 1.3072 1.3072 0 01-.277-.436l-.003-.009c-.062-.164-.098-.354-.098-.552v-.02-.019c0-.199.039-.389.109-.562l-.004.01c.071-.174.172-.322.297-.445.128-.123.281-.221.45-.287l.009-.003c.17-.065.367-.102.573-.102h.019-.001.035c.185 0 .362.034.525.097l-.01-.003c.152.063.291.15.412.257l-.128.171a.1568.1568 0 01-.032.031.084.084 0 01-.044.013H4.71a.116.116 0 01-.056-.018l-.069-.046-.096-.058a.9131.9131 0 00-.121-.054l-.007-.002a1.1073 1.1073 0 00-.166-.044l-.008-.001a1.1527 1.1527 0 00-.211-.018h-.018.001-.014c-.148 0-.289.028-.419.079l.008-.003a.9758.9758 0 00-.333.215.994.994 0 00-.214.336l-.002.007c-.05.13-.079.28-.079.436v.017-.001c-.002.156.024.312.078.46.047.126.119.242.212.341.088.093.196.165.318.212.114.046.246.073.384.073h.01-.001c.078.001.156-.004.234-.015a.8727.8727 0 00.358-.124l-.004.002c.054-.034.104-.072.151-.113a.1164.1164 0 01.073-.029zm4.422-.807v.018c0 .198-.038.386-.107.559l.004-.01c-.067.172-.165.319-.288.44-.126.123-.276.221-.444.286l-.009.003c-.173.065-.373.102-.582.102s-.409-.037-.594-.106l.012.004a1.3313 1.3313 0 01-.45-.29 1.3004 1.3004 0 01-.288-.436l-.003-.009c-.065-.169-.103-.364-.103-.568s.038-.399.107-.579l-.004.011c.07-.174.168-.322.291-.447.126-.119.275-.213.441-.276l.009-.003c.173-.066.373-.104.582-.104s.409.038.593.108l-.012-.004c.17.066.324.165.452.29.122.122.22.268.286.431l.003.009c.071.183.106.376.103.571zm-.402 0v-.025c0-.154-.027-.303-.076-.44l.003.009a.9539.9539 0 00-.205-.341l.001.001a.9136.9136 0 00-.317-.213l-.006-.002c-.126-.047-.271-.075-.423-.075s-.297.027-.431.078l.009-.003a.8974.8974 0 00-.323.215.9255.9255 0 00-.205.334l-.002.006c-.046.136-.073.293-.073.456s.027.32.076.466l-.003-.01c.043.126.114.242.207.341a.895.895 0 00.317.211l.006.002c.126.046.271.073.423.073s.297-.027.432-.076l-.009.003a.893.893 0 00.323-.213.983.983 0 00.203-.334l.002-.007c.046-.128.073-.275.073-.429v-.028.001zm3.419.478l.04.102c.015-.036.029-.069.044-.102.017-.04.034-.073.052-.105l-.003.005.978-1.694c.019-.029.036-.047.056-.053s.043-.009.067-.009h.014-.001.289v2.755h-.343v-2.112c-.001-.014-.001-.031-.001-.047s.001-.033.002-.05v.002l-.984 1.718a.1488.1488 0 01-.057.062h-.001a.1637.1637 0 01-.083.023H12.171c-.03 0-.058-.008-.082-.023h.001a.1545.1545 0 01-.057-.062v-.001l-1.013-1.729v2.212h-.331v-2.75h.303c.024 0 .047.003.068.01h-.002c.024.011.042.03.053.052v.001l.999 1.696c.018.028.035.061.048.094l.001.004zm3.68-.136v1.032h-.383v-2.752h.885c.159 0 .312.022.458.063l-.012-.003c.13.035.242.094.339.173l-.002-.001c.083.072.148.163.19.265l.002.005c.045.112.067.232.065.352v.011c0 .123-.026.24-.073.346l.002-.005a.746.746 0 01-.206.274l-.001.001a.9484.9484 0 01-.332.181l-.007.002c-.129.041-.277.064-.431.064h-.031l-.462-.007zm0-.296H16.316c.102 0 .199-.015.292-.044l-.007.002a.6246.6246 0 00.215-.119l-.001.001c.056-.049.1-.11.129-.179l.001-.003a.5601.5601 0 00.046-.224v-.007c.001-.009.001-.019.001-.029 0-.07-.014-.137-.041-.198l.001.003a.5437.5437 0 00-.133-.188.7662.7662 0 00-.515-.148h-.463v1.134zm5.146 1.331h-.307c-.03 0-.057-.01-.079-.026a.1682.1682 0 01-.049-.063v-.001l-.26-.666h-1.307l-.27.666a.1623.1623 0 01-.047.062.1337.1337 0 01-.081.027h-.307l1.148-2.756h.398l1.164 2.756zm-1.895-1.023h1.08l-.456-1.122c-.03-.07-.06-.157-.083-.245l-.003-.014-.044.144c-.015.049-.029.088-.045.126l.003-.009-.452 1.12zm3.549-1.719a.169.169 0 01.057.049l1.675 2.077v-2.139h.343v2.756h-.196a.1644.1644 0 01-.074-.017h.001a.2003.2003 0 01-.061-.051l-1.673-2.075c.001.014.001.031.001.047s0 .033-.002.05v-.002 2.048h-.343v-2.756H22.577c.023 0 .045.005.065.013h-.001zm4.896 1.646v1.094h-.383v-1.094l-1.059-1.66H26.446c.028 0 .054.009.075.024.02.017.038.038.051.061l.001.001.662 1.071c.02.033.043.075.064.118l.004.01c.019.04.034.078.048.117l.05-.119a.8776.8776 0 01.068-.13l-.002.004.653-1.078a.307.307 0 01.049-.058.1194.1194 0 01.076-.027h.352l-1.06 1.667zm-15.566-6.284c.167.02.335.036.505.051 2.583-1.101 4.768-2.902 6.282-5.18s2.29-4.929 2.231-7.624l-2.846-2.712c.579 2.869.308 5.836-.782 8.567s-2.956 5.12-5.389 6.898z"/><path fill="var(--color1, #afb1b8)" d="M10.955 24.167l.077.015c2.6-1.772 4.583-4.247 5.691-7.104s1.292-5.965.526-8.922l-4.054-3.862c1.64 3.175 2.3 6.728 1.903 10.246s-1.833 6.857-4.143 9.628zm13.749-9.442c-.689 2.961-2.362 5.632-4.77 7.616-.665.554-1.406 1.067-2.192 1.511l-.075.039c1.961-.549 3.764-1.52 5.269-2.838s2.672-2.947 3.412-4.763l-1.644-1.565z"/><path fill="var(--color1, #afb1b8)" d="M24.059 14.289l-2.341-2.23c-.045 2.543-.804 5.028-2.197 7.197s-3.372 3.943-5.729 5.137h.012c.554 0 1.1-.033 1.637-.096l-.065.006c2.203-.857 4.148-2.219 5.664-3.967s2.553-3.825 3.021-6.047zM11.294 2.664L8.501 0C6.004.919 3.857 2.535 2.34 4.636S.008 9.225 0 11.775c.009 2.818 1.005 5.552 2.829 7.77s4.372 3.793 7.242 4.476c2.561-2.973 4.061-6.647 4.281-10.488s-.851-7.648-3.058-10.869zm19.218 11.214c-.01-3.343-1.408-6.546-3.89-8.91s-5.843-3.696-9.352-3.706a13.678 13.678 0 00-4.741.841l17.099 16.291c.586-1.44.885-2.971.884-4.515z"/></symbol><symbol id="icon-logo-4-1" viewBox="0 0 60 32"><path fill="var(--color1, #afb1b8)" d="M9.23 9.548h-.002c-1.684 0-3.048 1.33-3.048 2.971v.002c0 1.641 1.365 2.971 3.048 2.971h.002c1.684 0 3.048-1.33 3.048-2.971v-.002c0-1.641-1.365-2.971-3.048-2.971zm22.5-.949c-.005-2.279-.936-4.463-2.589-6.074S25.247.006 22.908.001c-2.339.004-4.581.911-6.235 2.523S14.087 6.32 14.083 8.6v12.566S31.728 19.251 31.73 8.602V8.6zM0 25.289c.004 1.586.652 3.105 1.803 4.226s2.709 1.753 4.336 1.758c1.627-.005 3.185-.636 4.336-1.757s1.799-2.64 1.803-4.225v-8.744S0 17.881 0 25.289zm6.139 1.567h-.002c-.331 0-.64-.099-.898-.268l.006.004c-.264-.172-.47-.417-.592-.703-.077-.177-.122-.383-.122-.599 0-.108.011-.214.033-.316l-.002.01c.067-.317.223-.591.44-.802.22-.213.5-.365.813-.427l.01-.002c.094-.019.203-.03.313-.03.222 0 .433.044.626.123l-.011-.004c.294.119.545.319.721.577s.271.561.271.87v.006c0 .215-.044.42-.124.606l.004-.01c-.085.199-.203.368-.348.51-.146.143-.319.258-.512.337l-.011.004c-.182.076-.394.12-.616.12h-.001v-.006zm12.532-.972h-1.256v1.297h-.654v-3.174h2.067v.53h-1.413v.82h1.256v.528zm3.144-.218c0 .312-.055.587-.166.822s-.269.417-.475.545c-.205.128-.44.192-.706.192-.263 0-.498-.063-.704-.19s-.366-.307-.48-.541c-.113-.235-.171-.506-.172-.811v-.157c0-.312.056-.587.168-.824.113-.238.273-.421.477-.547.206-.128.442-.192.706-.192s.499.064.704.192c.206.126.366.309.477.547.113.237.17.511.17.822v.142zm-.663-.144c0-.333-.06-.586-.179-.759s-.289-.259-.51-.259c-.22 0-.389.086-.508.257-.119.17-.18.42-.181.75v.155c0 .324.06.576.179.754s.291.268.515.268c.219 0 .388-.086.506-.257.118-.173.177-.424.179-.754v-.155zm2.784.826c0-.124-.044-.218-.131-.283-.087-.067-.244-.137-.471-.209-.227-.074-.406-.147-.539-.218-.36-.195-.541-.457-.541-.787 0-.172.048-.324.144-.458.097-.135.236-.241.416-.316.182-.076.385-.113.61-.113.227 0 .429.041.606.124.177.081.315.197.412.347.099.15.148.32.148.51h-.654c0-.145-.046-.258-.137-.338-.092-.081-.22-.122-.386-.122-.16 0-.284.034-.373.102-.089.067-.133.156-.133.266 0 .103.052.19.155.259.105.07.258.135.46.196.372.112.643.251.813.416s.255.372.255.619c0 .275-.104.491-.312.648-.208.156-.488.233-.839.233-.244 0-.467-.044-.667-.133-.201-.09-.354-.213-.46-.368-.105-.156-.157-.336-.157-.541h.656c0 .35.209.525.628.525.156 0 .277-.031.364-.094.087-.064.131-.153.131-.266zm3.491-1.812h-.972v2.645h-.654v-2.645h-.959v-.53h2.586v.53zm2.285 1.269h-1.256v.85h1.474v.525h-2.128v-3.174h2.124v.53h-1.469v.757h1.256v.512zm1.777.214h-.521v1.162h-.654v-3.174h1.179c.375 0 .664.084.868.251s.305.403.305.709c0 .217-.047.397-.142.543-.093.144-.235.259-.425.344l.687 1.297v.03h-.702l-.595-1.162zm-.521-.53h.528c.164 0 .291-.041.382-.124.09-.084.135-.2.135-.347 0-.15-.043-.267-.129-.353-.084-.086-.214-.129-.39-.129h-.525v.953zm3.963.574v1.118h-.654v-3.174h1.238c.238 0 .448.044.628.131.182.087.321.212.419.373.097.16.146.342.146.547 0 .311-.107.557-.321.737-.212.179-.507.268-.883.268h-.573zm0-.53h.584c.173 0 .305-.041.395-.122.092-.081.137-.198.137-.349 0-.156-.046-.281-.137-.377s-.218-.145-.379-.148h-.6v.996zm4.138.272h-1.256v.85h1.474v.525h-2.128v-3.174h2.124v.53h-1.469v.757h1.256v.512zm3.035-1.269h-.972v2.645h-.654v-2.645h-.959v-.53h2.586v.53zm2.285 1.269h-1.256v.85h1.474v.525h-2.128v-3.174h2.124v.53h-1.47v.757h1.256v.512zm1.777.214h-.521v1.162h-.654v-3.174h1.18c.375 0 .664.084.868.251s.305.403.305.709c0 .217-.047.397-.142.543-.093.144-.235.259-.425.344l.687 1.297v.03h-.702l-.595-1.162zm-.521-.53h.528c.164 0 .291-.041.382-.124.09-.084.135-.2.135-.347 0-.15-.043-.267-.129-.353-.084-.086-.214-.129-.39-.129h-.525v.953zm3.844.859c0-.124-.044-.218-.131-.283-.087-.067-.244-.137-.471-.209-.227-.074-.406-.147-.538-.218-.36-.195-.541-.457-.541-.787 0-.172.048-.324.144-.458.097-.135.236-.241.416-.316.182-.076.385-.113.61-.113.227 0 .429.041.606.124.177.081.315.197.412.347.099.15.148.32.148.51h-.654c0-.145-.046-.258-.137-.338-.092-.081-.22-.122-.386-.122-.16 0-.284.034-.373.102-.089.067-.133.156-.133.266 0 .103.052.19.155.259.105.07.258.135.46.196.372.112.643.251.813.416s.255.372.255.619c0 .275-.104.491-.312.648-.208.156-.488.233-.839.233-.244 0-.467-.044-.667-.133-.201-.09-.354-.213-.46-.368-.105-.156-.157-.336-.157-.541h.656c0 .35.209.525.628.525.156 0 .277-.031.364-.094.087-.064.131-.153.131-.266z"/></symbol><symbol id="icon-logo-5-1" viewBox="0 0 40 32"><path fill="var(--color1, #afb1b8)" d="M3.055 26.742c.157.195.24.438.236.688.001.016.001.035.001.053 0 .153-.031.298-.088.43l.003-.007c-.066.155-.161.286-.28.392l-.001.001c-.262.2-.594.321-.954.321-.038 0-.075-.001-.112-.004h.005H0v-4.361h1.827c.031-.002.067-.003.103-.003.341 0 .657.11.913.296l-.004-.003c.118.099.211.224.273.366s.089.296.081.45c.001.014.001.029.001.045 0 .235-.08.452-.215.624l.002-.002a.9913.9913 0 01-.549.34l-.007.001c.247.045.471.177.63.373zm-2.187-.658h.781a.736.736 0 00.498-.146l-.002.001a.5186.5186 0 00.167-.428v.002c.001-.011.001-.024.001-.037 0-.153-.064-.291-.167-.389a.7501.7501 0 00-.514-.146h.003-.768v1.144zm1.354 1.672c.114-.1.186-.246.186-.409 0-.012 0-.024-.001-.036v.002c.001-.009.001-.02.001-.031a.55.55 0 00-.189-.416l-.001-.001a.7993.7993 0 00-.48-.159c-.018 0-.035.001-.053.002h.002-.819v1.199h.83c.014.001.031.001.047.001a.817.817 0 00.479-.154l-.002.002zm4.568.861l-1.016-1.704h-.382v1.704h-.874v-4.361h1.655c.034-.003.074-.004.113-.004.396 0 .759.142 1.041.377l-.003-.002a1.3938 1.3938 0 01.396.974c0 .313-.103.601-.276.834l.003-.004a1.344 1.344 0 01-.781.442l-.008.001 1.082 1.743h-.951zm-1.399-2.299h.715c.496 0 .745-.22.745-.66.001-.011.001-.024.001-.037 0-.176-.07-.336-.184-.453a.7664.7664 0 00-.495-.18.802.802 0 00-.07.003h.003-.724l.008 1.327zm6.177 1.421H9.826l-.308.878h-.917l1.6-4.312h.991l1.594 4.312h-.917l-.301-.878zm-.233-.66l-.637-1.841-.637 1.841h1.273zm6.215 1.538h-.868l-1.946-2.965v2.965h-.866v-4.361h.866l1.946 2.983v-2.983h.868v4.361zm4.952-1.044c-.182.33-.45.593-.775.764l-.01.005c-.335.174-.732.276-1.153.276-.024 0-.047 0-.071-.001h.003-1.545v-4.361h1.545c.02-.001.044-.001.068-.001.42 0 .816.099 1.167.276l-.015-.007c.335.172.603.433.78.751l.005.009c.171.333.272.727.272 1.144 0 .417-.1.811-.278 1.158l.007-.014zm-.993-.104c.239-.278.384-.642.384-1.04 0-.382-.136-.751-.384-1.041a1.496 1.496 0 00-.992-.374c-.033 0-.066.001-.098.003h.004-.603v2.823h.603a1.501 1.501 0 001.088-.372l-.002.001zM12.111 0s11.201 4.246 10.963 10.39v10.392S11.881 16.534 12.115 10.39L12.111 0zm20.943 18.349c2.005-1.402 4.428-2.345 7.049-2.627l.067-.006v-3.253c-2.943 1.139-5.44 3.204-7.117 5.886z"/><path fill="var(--color1, #afb1b8)" d="M31.783 19.329c1.731-3.5 4.733-6.202 8.388-7.548V2.407S24.219 8.455 24.557 17.204v14.795s.711-.271 1.829-.778c0-.473 0-.95.051-1.429.33-4.062 2.253-7.826 5.347-10.464z"/><path fill="var(--color1, #afb1b8)" d="M30.266 24.825c.084-1.026.271-2.041.558-3.029a14.3227 14.3227 0 00-3.335 8.085c-.023.281-.036.562-.043.852 1.299-.625 2.304-1.165 3.286-1.741l-.218.118c-.191-.909-.3-1.953-.3-3.022 0-.444.019-.884.056-1.318l-.004.057zm.634.053c-.031.359-.049.778-.049 1.2 0 .947.09 1.874.261 2.771l-.015-.092c4.358-2.618 9.255-6.664 9.066-11.553v-.426a14.276 14.276 0 00-8.292 3.89c-.501 1.234-.847 2.664-.968 4.157l-.003.052z"/></symbol><symbol id="icon-logo-6-1" viewBox="0 0 62 32"><path fill="var(--color1, #afb1b8)" d="M31.124 14.854c-.291-.424-.43-.926-.397-1.431v-2.075c0-.636.132-1.119.395-1.45s.715-.495 1.356-.494c.602 0 1.029.141 1.282.422.276.359.41.798.379 1.241v.488h-1.077v-.494c.001-.019.001-.042.001-.065 0-.148-.012-.293-.034-.434l.002.016a.482.482 0 00-.153-.287.5758.5758 0 00-.345-.114c-.016 0-.031.001-.047.002h.002a.619.619 0 00-.41.118.563.563 0 00-.178.317c-.027.142-.043.305-.043.472v.043-.002 2.518a1.425 1.425 0 00-.003.096c0 .223.052.433.145.619l-.004-.008c.055.075.127.134.212.17l.003.001c.063.028.136.044.213.044.023 0 .045-.001.067-.004h-.003a.545.545 0 00.381-.114c.088-.082.144-.19.161-.306.022-.136.034-.293.034-.452 0-.018 0-.037-.001-.055v.003-.511h1.077v.466c.03.462-.101.92-.372 1.304-.248.308-.669.462-1.289.462s-1.088-.165-1.353-.507zm4.483.022c-.272-.323-.408-.794-.408-1.416v-2.182c0-.616.136-1.083.408-1.399s.727-.474 1.364-.473c.633 0 1.086.158 1.358.473.272.317.41.783.41 1.399v2.182c0 .616-.138 1.089-.415 1.414s-.727.488-1.353.488-1.09-.165-1.364-.485zm1.866-.524c.097-.202.142-.424.129-.646v-2.672a1.273 1.273 0 00-.131-.64l.003.007a.5247.5247 0 00-.217-.173l-.003-.001a.5282.5282 0 00-.21-.042c-.026 0-.052.002-.077.005h.003a.5462.5462 0 00-.289.039l.004-.001a.522.522 0 00-.22.172l-.001.001c-.083.163-.132.355-.132.559 0 .026.001.052.002.078v-.004 2.685c-.002.023-.002.05-.002.078 0 .207.049.402.135.576l-.003-.008c.062.067.138.121.223.158l.004.002c.087.037.181.057.277.057s.19-.019.277-.057a.6758.6758 0 00.227-.16v-.013zm2.562-4.884h1.159l.872 4.027.892-4.027h1.128l.114 5.812h-.834l-.089-4.04-.861 4.04h-.669l-.892-4.054-.082 4.054h-.843l.105-5.812zm5.465 0h1.806c1.04 0 1.561.55 1.561 1.65 0 1.054-.548 1.58-1.643 1.579h-.615v2.583h-1.115l.007-5.812zm1.543 2.484c.11.013.222.004.328-.028a.786.786 0 00.286-.156l-.001.001c.128-.196.184-.427.161-.656.001-.019.001-.042.001-.065 0-.164-.02-.324-.057-.476l.003.014a.4356.4356 0 00-.083-.16l.001.001a.4797.4797 0 00-.138-.116l-.002-.001c-.129-.06-.279-.095-.438-.095-.021 0-.041.001-.062.002h.003-.433v1.737h.433zm3.431-2.484h1.197l1.228 5.812H51.86l-.243-1.34h-1.068l-.25 1.34h-1.055l1.228-5.812zm1.023 3.799l-.417-2.44-.417 2.44h.834zm2.394-3.799h.78l1.494 3.316V9.468h.925v5.812h-.742l-1.503-3.461v3.461h-.956l.002-5.812zm5.367 3.596l-1.242-3.588h1.046l.758 2.305.711-2.305h1.023l-1.226 3.588v2.216h-1.07v-2.216zm-26.413 4.758v.304h-.91v2.362h-.381v-2.362h-.914v-.304h2.205zm2.852 2.666h-.301c-.028 0-.054-.01-.075-.026a.1363.1363 0 01-.049-.06v-.001l-.263-.633h-1.262l-.263.633a.1814.1814 0 01-.04.072.126.126 0 01-.076.025h-.3l1.115-2.666h.388l1.128 2.655zm-1.846-.99h1.052l-.446-1.085a1.9322 1.9322 0 01-.079-.237l-.003-.014c-.016.051-.029.099-.042.141l-.04.112-.441 1.083zm3.767.728c.07.003.14.003.21 0 .067-.007.128-.018.186-.033l-.008.002c.064-.015.117-.032.169-.052l-.009.003c.049-.019.098-.042.149-.065v-.599h-.45a.0862.0862 0 01-.056-.021.0589.0589 0 01-.022-.047v-.207h.865v1.022a1.558 1.558 0 01-.213.122l-.01.004c-.069.033-.151.064-.237.088l-.011.003c-.079.023-.173.042-.27.054l-.009.001c-.097.011-.209.017-.323.017h-.015c-.197 0-.386-.036-.56-.103l.011.004a1.3704 1.3704 0 01-.447-.279l.001.001c-.12-.117-.217-.258-.284-.414l-.003-.008c-.065-.158-.103-.342-.103-.535v-.019V19.148c0-.194.037-.379.104-.55l-.004.01c.069-.165.166-.306.287-.422.125-.117.273-.211.437-.273l.009-.003c.172-.063.37-.099.576-.099h.022-.001c.104 0 .207.008.31.023.091.014.18.037.265.068s.159.066.228.109l-.005-.003c.068.042.133.088.194.139l-.107.165a.0957.0957 0 01-.036.036.0975.0975 0 01-.051.014.1474.1474 0 01-.07-.021h.001c-.044-.023-.08-.044-.114-.066l.005.003a.9053.9053 0 00-.143-.07l-.007-.002a1.209 1.209 0 00-.197-.058l-.008-.001a1.5067 1.5067 0 00-.269-.023h-.015.001-.013c-.15 0-.293.027-.425.077l.008-.003a.9403.9403 0 00-.328.211.9426.9426 0 00-.207.331c-.047.132-.075.285-.075.444s.027.312.078.454l-.003-.009c.049.125.125.24.223.336.091.091.202.163.326.211.106.036.228.056.355.056a.91.91 0 00.091-.004h-.004zm3.554-.042h1.217v.304h-1.59v-2.666h.381l-.009 2.362zm2.484.304h-.381v-2.666h.381v2.666zm1.418-2.654c.023.012.042.029.058.048l1.63 2.009a.68.68 0 01-.002-.047c0-.016.001-.033.002-.05v.002-1.986h.332v2.676H46.889a.1715.1715 0 01-.071-.016h.001a.2422.2422 0 01-.06-.05l-1.628-2.007v2.073h-.319V17.82h.198c.023 0 .044.005.063.013h-.001zm4.827-.012v.293H48.55v.88h1.095v.283H48.55v.91h1.351v.293h-1.743v-2.659h1.743zM9.95 1.359l16.929 4.55v15.946L9.95 17.307V1.359zM8.864 0v18.082l19.098 5.135V5.137L8.864 0z"/><path fill="var(--color1, #afb1b8)" d="M19.1 31.611L0 26.472V8.392l19.1 5.137v18.082z"/><path fill="var(--color1, #afb1b8)" d="M9.181 1.155l16.708 4.493-7.105 6.729-16.71-4.496 7.108-6.726zM8.864 0L0 8.392l19.1 5.137 8.862-8.392L8.864 0zm11.311 30.593l7.788-7.374-7.788-2.096v9.47z"/></symbol></defs></svg>