<svg aria-hidden="true" style="position: absolute;  overflow: hidden;" version="1.1" xmlns="http://www.w3.org/2000/svg" xmlns:xlink="http://www.w3.org/1999/xlink">
<defs>
<symbol id="icon-logo-1-1" viewBox="0 0 29 32">
<path  d="M3.84 0l4.677 4.428h13.046v12.351l4.677 4.428v-21.206h-22.4z"></path>
<path  d="M0 4.241v20.6h21.76v-8.188l-13.105-12.406-8.655-0.005zM17.615 21.828h-14.172v-13.854h1.002v12.916h13.17v0.938zM6.266 28.662l0.523-1.078h0.438l-0.763 1.438v0.837h-0.397v-0.837l-0.764-1.438h0.439l0.524 1.078zM8.513 29.329h-0.881l-0.184 0.53h-0.411l0.859-2.275h0.355l0.861 2.275h-0.412l-0.186-0.53zM7.743 29.010h0.659l-0.33-0.944-0.33 0.944zM10.071 29.244c0-0.001 0-0.002 0-0.004 0-0.106 0.032-0.205 0.087-0.287l-0.001 0.002c0.057-0.089 0.17-0.193 0.339-0.314-0.088-0.111-0.151-0.206-0.186-0.284s-0.052-0.154-0.052-0.227c0-0.178 0.054-0.319 0.162-0.422s0.254-0.156 0.438-0.156c0.166 0 0.301 0.049 0.406 0.147 0.106 0.097 0.159 0.217 0.159 0.361 0 0.001 0 0.002 0 0.004 0 0.096-0.027 0.185-0.073 0.261l0.001-0.002c-0.048 0.079-0.127 0.158-0.236 0.238l-0.155 0.113 0.439 0.519c0.064-0.125 0.095-0.264 0.095-0.417h0.33c0 0.28-0.066 0.51-0.197 0.689l0.334 0.395h-0.441l-0.128-0.152c-0.162 0.122-0.356 0.183-0.581 0.183s-0.405-0.059-0.541-0.178c-0.134-0.12-0.202-0.276-0.202-0.467zM10.824 29.587c0.128 0 0.248-0.043 0.359-0.128l-0.497-0.586-0.048 0.034c-0.125 0.095-0.188 0.203-0.188 0.325 0 0.105 0.034 0.191 0.102 0.256s0.158 0.098 0.272 0.098zM10.615 28.121c0 0.087 0.054 0.197 0.161 0.33l0.173-0.119 0.048-0.039c0.065-0.057 0.097-0.131 0.097-0.22 0-0.059-0.022-0.11-0.067-0.152-0.045-0.043-0.102-0.064-0.17-0.064-0.074 0-0.133 0.025-0.177 0.075s-0.066 0.113-0.066 0.189zM14.748 29.118c-0.023 0.243-0.113 0.432-0.269 0.569-0.156 0.135-0.364 0.203-0.623 0.203-0.181 0-0.341-0.043-0.48-0.128-0.137-0.086-0.244-0.209-0.319-0.367s-0.114-0.342-0.117-0.552v-0.212c0-0.215 0.038-0.404 0.114-0.567s0.185-0.29 0.327-0.378c0.143-0.088 0.307-0.133 0.494-0.133 0.251 0 0.453 0.068 0.606 0.205s0.242 0.329 0.267 0.578h-0.394c-0.019-0.164-0.067-0.281-0.144-0.353-0.076-0.073-0.188-0.109-0.336-0.109-0.172 0-0.304 0.063-0.397 0.189-0.092 0.125-0.139 0.309-0.141 0.552v0.202c0 0.246 0.044 0.433 0.131 0.563s0.218 0.194 0.387 0.194c0.155 0 0.272-0.035 0.35-0.105s0.128-0.186 0.148-0.348h0.394zM16.918 28.78c0 0.223-0.039 0.419-0.116 0.588-0.077 0.168-0.188 0.297-0.331 0.388-0.143 0.090-0.307 0.134-0.494 0.134-0.184 0-0.349-0.045-0.494-0.134-0.144-0.091-0.255-0.219-0.334-0.386-0.078-0.167-0.118-0.359-0.119-0.576v-0.128c0-0.222 0.039-0.418 0.117-0.588 0.079-0.17 0.19-0.299 0.333-0.389 0.144-0.091 0.308-0.136 0.494-0.136s0.349 0.045 0.492 0.134c0.144 0.088 0.255 0.217 0.333 0.384s0.118 0.361 0.119 0.583v0.127zM16.523 28.662c0-0.252-0.048-0.445-0.144-0.58-0.095-0.134-0.23-0.202-0.405-0.202-0.171 0-0.305 0.067-0.402 0.202-0.096 0.133-0.145 0.322-0.147 0.567v0.131c0 0.25 0.048 0.443 0.145 0.58s0.233 0.205 0.406 0.205c0.175 0 0.309-0.067 0.403-0.2 0.095-0.133 0.142-0.328 0.142-0.584v-0.119z"></path>
</symbol>
<symbol id="icon-logo-2-1" viewBox="0 0 25 32">
<path  d="M10.447 1.806h0.084c0.156 0 0.324 0.016 0.49 0.030 0.807 0.058 1.552 0.175 2.274 0.348l-0.095-0.019v-1.762c-0.652-0.172-1.42-0.299-2.207-0.356l-0.042-0.002c-0.288-0.022-0.595-0.036-0.909-0.044h-0.263c-1.607 0.006-3.162 0.218-4.643 0.611l0.128-0.029c-1.816 0.46-3.411 1.128-4.875 1.995l0.085-0.046v17.475c1.312-0.729 2.832-1.338 4.431-1.75l0.135-0.029c1.123-0.3 2.434-0.51 3.78-0.586l0.052-0.002h0.051c0.191-0.010 0.42-0.017 0.65-0.019l0.006-0v-1.79c-1.78 0.024-3.493 0.264-5.129 0.695l0.147-0.033c-0.602 0.157-1.185 0.325-1.731 0.513l-0.623 0.211v-13.625l0.266-0.128c1.89-0.918 4.096-1.512 6.424-1.649l0.047-0.002c0.008-0.001 0.018-0.001 0.028-0.001s0.020 0 0.029 0.001l-0.001-0c0.248-0.012 0.497-0.019 0.741-0.019h0.28c0.129 0.003 0.258 0.006 0.388 0.014z"></path>
<path  d="M14.838 3.651c-0.409 0-0.814-0.014-1.205-0.044-0.467-0.034-0.947-0.091-1.401-0.167-0.363-0.062-0.638-0.119-0.91-0.184l0.096 0.019v17.275c0.995 0.257 2.137 0.404 3.314 0.404 0.039 0 0.078-0 0.117-0l-0.006 0c1.607-0.007 3.162-0.218 4.643-0.609l-0.128 0.029c1.817-0.461 3.412-1.129 4.877-1.995l-0.085 0.047v-17.163c-1.312 0.728-2.831 1.338-4.429 1.751l-0.136 0.030c-1.423 0.381-3.057 0.602-4.743 0.609h-0.004zM21.745 3.95l0.623-0.21v13.63l-0.266 0.128c-0.903 0.442-1.962 0.834-3.065 1.118l-0.119 0.026c-1.221 0.329-2.624 0.521-4.070 0.527h-0.004c-0.411 0-0.819-0.017-1.214-0.052l-0.427-0.038v-14.017l0.497 0.033c0.361 0.024 0.735 0.034 1.141 0.034 1.841-0.007 3.622-0.248 5.32-0.697l-0.147 0.033c0.777-0.203 1.355-0.38 1.924-0.576l-0.193 0.058zM1.685 25.977c-0.087-0.091-0.193-0.163-0.311-0.212l-0.006-0.002c-0.101-0.042-0.219-0.067-0.343-0.067-0.012 0-0.023 0-0.035 0.001l0.002-0c-0.004-0-0.009-0-0.014-0-0.139 0-0.272 0.028-0.393 0.078l0.007-0.003c-0.121 0.049-0.225 0.119-0.311 0.205v0c-0.086 0.087-0.154 0.191-0.199 0.307l-0.002 0.006c-0.045 0.111-0.072 0.24-0.072 0.375 0 0.004 0 0.008 0 0.012v-0.001 2.335c-0.006 0.165 0.026 0.328 0.092 0.479 0.055 0.12 0.135 0.226 0.234 0.313 0.093 0.079 0.203 0.135 0.321 0.166 0.114 0.032 0.231 0.048 0.349 0.049 0.003 0 0.006 0 0.009 0 0.134 0 0.26-0.030 0.373-0.084l-0.005 0.002c0.121-0.054 0.225-0.127 0.311-0.216l0-0c0.084-0.088 0.153-0.192 0.201-0.306l0.002-0.007c0.047-0.109 0.075-0.235 0.075-0.368 0-0.002 0-0.003 0-0.005v0-0.261h-0.61v0.208c0 0.004 0 0.009 0 0.014 0 0.070-0.013 0.137-0.037 0.198l0.001-0.004c-0.021 0.052-0.051 0.095-0.089 0.131l-0 0c-0.036 0.029-0.079 0.052-0.125 0.067l-0.003 0.001c-0.038 0.013-0.082 0.021-0.127 0.022h-0c-0.011 0.001-0.023 0.002-0.036 0.002-0.045 0-0.088-0.010-0.126-0.027l0.002 0.001c-0.051-0.023-0.094-0.057-0.126-0.1l-0.001-0.001c-0.051-0.082-0.081-0.182-0.081-0.289 0-0.008 0-0.017 0.001-0.025l-0 0.001v-2.177c-0-0.007-0-0.015-0-0.023 0-0.118 0.028-0.23 0.077-0.33l-0.002 0.004c0.032-0.049 0.076-0.088 0.127-0.113l0.002-0.001c0.039-0.019 0.084-0.030 0.132-0.030 0.013 0 0.026 0.001 0.039 0.002l-0.002-0c0.003-0 0.007-0 0.012-0 0.107 0 0.201 0.051 0.26 0.131l0.001 0.001c0.063 0.082 0.101 0.187 0.101 0.301 0 0.004-0 0.009-0 0.013v-0.001 0.202h0.604v-0.238c0-0.003 0-0.006 0-0.010 0-0.143-0.027-0.281-0.077-0.406l0.003 0.007c-0.048-0.128-0.117-0.237-0.204-0.329l0 0zM5.31 25.95c-0.186-0.158-0.429-0.255-0.694-0.257h-0c-0.131 0.001-0.256 0.025-0.372 0.068l0.007-0.002c-0.124 0.045-0.231 0.11-0.323 0.192l0.001-0.001c-0.099 0.090-0.179 0.198-0.234 0.321l-0.002 0.006c-0.056 0.127-0.089 0.275-0.089 0.431 0 0.007 0 0.015 0 0.022l-0-0.001v2.239c-0.004 0.158 0.026 0.314 0.089 0.459 0.055 0.12 0.136 0.227 0.237 0.313 0.093 0.087 0.203 0.154 0.322 0.197 0.117 0.043 0.24 0.065 0.364 0.066 0.131-0 0.256-0.024 0.372-0.068l-0.007 0.002c0.127-0.047 0.237-0.114 0.331-0.198l-0.001 0.001c0.096-0.086 0.173-0.19 0.228-0.307l0.002-0.006c0.056-0.127 0.089-0.274 0.089-0.43 0-0.010-0-0.020-0-0.030l0 0.002v-2.239c0-0.006 0-0.014 0-0.021 0-0.156-0.033-0.304-0.092-0.438l0.003 0.007c-0.057-0.128-0.135-0.236-0.23-0.327l-0-0zM5.025 28.969c0.001 0.010 0.002 0.022 0.002 0.035 0 0.051-0.009 0.099-0.027 0.144l0.001-0.003c-0.022 0.058-0.055 0.108-0.097 0.148l-0 0c-0.077 0.065-0.178 0.105-0.287 0.105s-0.21-0.040-0.288-0.105l0.001 0.001c-0.042-0.041-0.075-0.090-0.096-0.145l-0.001-0.003c-0.016-0.042-0.026-0.091-0.026-0.141 0-0.012 0.001-0.024 0.002-0.036l-0 0.002v-2.239c-0.001-0.010-0.002-0.022-0.002-0.035 0-0.051 0.009-0.099 0.027-0.144l-0.001 0.003c0.022-0.058 0.055-0.108 0.097-0.148l0-0c0.077-0.065 0.178-0.105 0.287-0.105v0c0.11 0 0.21 0.040 0.288 0.105l-0.001-0.001c0.043 0.041 0.076 0.092 0.097 0.148 0.016 0.042 0.026 0.090 0.026 0.141 0 0.012-0.001 0.024-0.002 0.036l0-0.002v2.239zM10.072 29.969v-4.239h-0.587l-0.771 2.244h-0.011l-0.777-2.244h-0.581v4.239h0.606v-2.579h0.011l0.593 1.823h0.302l0.598-1.823h0.011v2.579h0.606zM13.513 26.027c-0.091-0.102-0.207-0.182-0.337-0.23l-0.006-0.002c-0.124-0.042-0.267-0.066-0.416-0.066-0.008 0-0.016 0-0.024 0l0.001-0h-0.9v4.239h0.604v-1.656h0.311c0.015 0.001 0.032 0.001 0.050 0.001 0.18 0 0.351-0.043 0.501-0.12l-0.006 0.003c0.138-0.078 0.251-0.188 0.329-0.32l0.002-0.004c0.067-0.106 0.115-0.23 0.138-0.363l0.001-0.006c0.021-0.134 0.033-0.288 0.033-0.445 0-0.013-0-0.026-0-0.039l0 0.002c0.001-0.021 0.001-0.045 0.001-0.070 0-0.19-0.022-0.375-0.063-0.552l0.003 0.016c-0.043-0.153-0.12-0.284-0.223-0.39l0 0zM13.201 27.319c-0.003 0.081-0.023 0.156-0.057 0.224l0.001-0.003c-0.035 0.065-0.089 0.116-0.154 0.148l-0.002 0.001c-0.074 0.034-0.161 0.054-0.253 0.054-0.011 0-0.022-0-0.033-0.001l0.002 0h-0.276v-1.441h0.311c0.008-0 0.018-0.001 0.028-0.001 0.089 0 0.172 0.020 0.248 0.055l-0.004-0.002c0.062 0.036 0.111 0.090 0.141 0.154l0.001 0.002c0.033 0.074 0.051 0.155 0.053 0.236v0.282c0 0.099 0.006 0.2 0 0.291h-0.006zM16.374 25.73h-0.495l-0.934 4.239h0.604l0.177-0.911h0.824l0.177 0.911h0.604l-0.957-4.239zM15.816 28.481l0.297-1.537h0.011l0.296 1.537h-0.604zM20.277 28.283h-0.011l-0.912-2.554h-0.581v4.239h0.604v-2.549h0.012l0.923 2.549h0.568v-4.239h-0.604v2.554zM23.968 25.73l-0.486 1.685h-0.012l-0.486-1.685h-0.64l0.83 2.447v1.792h0.604v-1.792l0.83-2.447h-0.64zM0 31.166h0.291v0.817h0.198v-0.817h0.29v-0.167h-0.778v0.167zM2.447 30.998l-0.381 0.984h0.21l0.081-0.224h0.392l0.084 0.224h0.215l-0.391-0.984h-0.21zM2.416 31.593l0.134-0.365 0.134 0.365h-0.268zM4.866 31.62h0.227v0.127c-0.063 0.051-0.145 0.082-0.233 0.083h-0c-0.004 0-0.009 0-0.014 0-0.079 0-0.149-0.037-0.194-0.094l-0-0c-0.046-0.066-0.074-0.147-0.074-0.235 0-0.008 0-0.015 0.001-0.023l-0 0.001c0-0.219 0.095-0.329 0.283-0.329 0.006-0.001 0.013-0.001 0.021-0.001 0.045 0 0.086 0.014 0.12 0.038l-0.001-0c0.040 0.029 0.070 0.070 0.082 0.118l0 0.001 0.195-0.038c-0.042-0.192-0.181-0.289-0.417-0.289-0.004-0-0.008-0-0.013-0-0.127 0-0.244 0.048-0.331 0.127l0-0c-0.048 0.048-0.087 0.106-0.111 0.17l-0.001 0.003c-0.019 0.050-0.031 0.108-0.031 0.169 0 0.013 0 0.025 0.001 0.038l-0-0.002c-0 0.007-0 0.015-0 0.023 0 0.132 0.048 0.253 0.127 0.347l-0.001-0.001c0.087 0.089 0.208 0.145 0.342 0.145 0.011 0 0.022-0 0.033-0.001l-0.001 0c0.005 0 0.011 0 0.016 0 0.155 0 0.296-0.060 0.401-0.157l-0 0v-0.388h-0.427v0.166zM7.337 30.998h-0.199v0.984h0.69v-0.167h-0.49v-0.817zM9.426 30.998h-0.199v0.984h0.199v-0.984zM11.469 31.656l-0.403-0.657h-0.193v0.984h0.185v-0.643l0.395 0.643h0.198v-0.984h-0.182v0.657zM13.315 31.549h0.49v-0.167h-0.49v-0.216h0.528v-0.167h-0.727v0.984h0.747v-0.167h-0.548v-0.266zM17.792 31.387h-0.388v-0.388h-0.198v0.984h0.198v-0.43h0.388v0.43h0.198v-0.984h-0.198v0.388zM19.649 31.549h0.492v-0.167h-0.492v-0.216h0.529v-0.167h-0.727v0.984h0.746v-0.167h-0.548v-0.266zM22.168 31.549c0.171-0.027 0.258-0.117 0.258-0.274 0.001-0.008 0.002-0.018 0.002-0.028 0-0.078-0.038-0.148-0.098-0.19l-0.001-0c-0.073-0.037-0.159-0.059-0.25-0.059-0.014 0-0.027 0-0.040 0.001l0.002-0h-0.417v0.984h0.198v-0.412h0.039c0.005-0 0.011-0.001 0.017-0.001 0.039 0 0.075 0.008 0.108 0.023l-0.002-0.001c0.029 0.018 0.053 0.042 0.070 0.071l0.001 0.001 0.215 0.313h0.237l-0.12-0.192c-0.054-0.096-0.128-0.175-0.216-0.235l-0.002-0.002zM21.969 31.413h-0.146v-0.247h0.156c0.013-0.001 0.027-0.002 0.042-0.002 0.057 0 0.111 0.009 0.163 0.026l-0.004-0.001c0.027 0.024 0.043 0.058 0.043 0.096 0 0.043-0.021 0.080-0.052 0.104l-0 0c-0.049 0.016-0.106 0.025-0.164 0.025-0.013 0-0.026-0-0.038-0.001l0.002 0zM24.067 31.549h0.49v-0.167h-0.49v-0.216h0.529v-0.167h-0.729v0.984h0.747v-0.167h-0.548v-0.266z"></path>
</symbol>
<symbol id="icon-logo-3-1" viewBox="0 0 31 32">
<path  d="M4.722 31.103c0.012 0 0.023 0.003 0.033 0.007l-0.001-0c0.011 0.005 0.019 0.011 0.027 0.018v0l0.153 0.161c-0.118 0.128-0.262 0.231-0.423 0.301l-0.008 0.003c-0.169 0.070-0.366 0.11-0.572 0.11-0.014 0-0.027-0-0.041-0.001l0.002 0c-0.009 0-0.020 0-0.030 0-0.196 0-0.383-0.038-0.554-0.106l0.010 0.004c-0.169-0.068-0.313-0.166-0.432-0.288l-0-0c-0.119-0.124-0.214-0.272-0.277-0.436l-0.003-0.009c-0.062-0.164-0.098-0.354-0.098-0.552 0-0.007 0-0.013 0-0.020v0.001c-0-0.006-0-0.013-0-0.020 0-0.199 0.039-0.389 0.109-0.562l-0.004 0.010c0.071-0.174 0.172-0.322 0.297-0.445l0-0c0.128-0.123 0.281-0.221 0.45-0.287l0.009-0.003c0.17-0.065 0.367-0.102 0.573-0.102 0.006 0 0.013 0 0.019 0h-0.001c0.010-0 0.022-0 0.035-0 0.185 0 0.362 0.034 0.525 0.097l-0.010-0.003c0.152 0.063 0.291 0.15 0.412 0.257l-0.128 0.171c-0.009 0.012-0.020 0.022-0.032 0.031l-0 0c-0.013 0.008-0.028 0.013-0.044 0.013-0.003 0-0.005-0-0.008-0l0 0c-0.021-0.001-0.040-0.008-0.056-0.018l0 0-0.069-0.046-0.096-0.058c-0.035-0.019-0.077-0.038-0.121-0.054l-0.007-0.002c-0.048-0.017-0.106-0.033-0.166-0.044l-0.008-0.001c-0.063-0.012-0.136-0.018-0.211-0.018-0.006 0-0.012 0-0.018 0h0.001c-0.004-0-0.009-0-0.014-0-0.148 0-0.289 0.028-0.419 0.079l0.008-0.003c-0.13 0.051-0.241 0.124-0.333 0.215l0-0c-0.092 0.095-0.166 0.21-0.214 0.336l-0.002 0.007c-0.050 0.13-0.079 0.28-0.079 0.436 0 0.006 0 0.011 0 0.017v-0.001c-0.002 0.156 0.024 0.312 0.078 0.46 0.047 0.126 0.119 0.242 0.212 0.341 0.088 0.093 0.196 0.165 0.318 0.212 0.114 0.046 0.246 0.073 0.384 0.073 0.003 0 0.007-0 0.010-0h-0.001c0.078 0.001 0.156-0.004 0.234-0.015 0.133-0.016 0.253-0.059 0.358-0.124l-0.004 0.002c0.054-0.034 0.104-0.072 0.151-0.113 0.019-0.017 0.045-0.028 0.073-0.029h0zM9.144 30.296c0 0.005 0 0.012 0 0.018 0 0.198-0.038 0.386-0.107 0.559l0.004-0.010c-0.067 0.172-0.165 0.319-0.288 0.44l-0 0c-0.126 0.123-0.276 0.221-0.444 0.286l-0.009 0.003c-0.173 0.065-0.373 0.102-0.582 0.102s-0.409-0.037-0.594-0.106l0.012 0.004c-0.175-0.069-0.325-0.167-0.45-0.29l0 0c-0.123-0.123-0.222-0.271-0.288-0.436l-0.003-0.009c-0.065-0.169-0.103-0.364-0.103-0.568s0.038-0.399 0.107-0.579l-0.004 0.011c0.070-0.174 0.168-0.322 0.291-0.447l-0 0c0.126-0.119 0.275-0.213 0.441-0.276l0.009-0.003c0.173-0.066 0.373-0.104 0.582-0.104s0.409 0.038 0.593 0.108l-0.012-0.004c0.17 0.066 0.324 0.165 0.452 0.29 0.122 0.122 0.22 0.268 0.286 0.431l0.003 0.009c0.071 0.183 0.106 0.376 0.103 0.571zM8.742 30.296c0-0.007 0-0.016 0-0.025 0-0.154-0.027-0.303-0.076-0.44l0.003 0.009c-0.046-0.132-0.116-0.246-0.205-0.341l0.001 0.001c-0.089-0.092-0.197-0.165-0.317-0.213l-0.006-0.002c-0.126-0.047-0.271-0.075-0.423-0.075s-0.297 0.027-0.431 0.078l0.009-0.003c-0.127 0.050-0.235 0.123-0.323 0.215l-0 0c-0.090 0.094-0.161 0.208-0.205 0.334l-0.002 0.006c-0.046 0.136-0.073 0.293-0.073 0.456s0.027 0.32 0.076 0.466l-0.003-0.010c0.043 0.126 0.114 0.242 0.207 0.341 0.089 0.092 0.197 0.164 0.317 0.211l0.006 0.002c0.126 0.046 0.271 0.073 0.423 0.073s0.297-0.027 0.432-0.076l-0.009 0.003c0.127-0.049 0.235-0.122 0.323-0.213l0-0c0.088-0.095 0.158-0.209 0.203-0.334l0.002-0.007c0.046-0.128 0.073-0.275 0.073-0.429 0-0.009-0-0.019-0-0.028l0 0.001zM12.161 30.774l0.040 0.102c0.015-0.036 0.029-0.069 0.044-0.102 0.017-0.040 0.034-0.073 0.052-0.105l-0.003 0.005 0.978-1.694c0.019-0.029 0.036-0.047 0.056-0.053s0.043-0.009 0.067-0.009c0.005 0 0.010 0 0.014 0l-0.001-0h0.289v2.755h-0.343v-2.112c-0.001-0.014-0.001-0.031-0.001-0.047s0.001-0.033 0.002-0.050l-0 0.002-0.984 1.718c-0.013 0.026-0.033 0.048-0.057 0.062l-0.001 0c-0.024 0.014-0.052 0.023-0.083 0.023-0 0-0.001 0-0.001 0h-0.055c-0.001 0-0.002 0-0.003 0-0.030 0-0.058-0.008-0.082-0.023l0.001 0c-0.025-0.015-0.044-0.037-0.057-0.062l-0-0.001-1.013-1.729v2.212h-0.331v-2.75h0.289c0.004-0 0.009-0 0.014-0 0.024 0 0.047 0.003 0.068 0.010l-0.002-0c0.024 0.011 0.042 0.030 0.053 0.052l0 0.001 0.999 1.696c0.018 0.028 0.035 0.061 0.048 0.094l0.001 0.004zM15.841 30.638v1.032h-0.383v-2.752h0.854c0.009-0 0.020-0 0.031-0 0.159 0 0.312 0.022 0.458 0.063l-0.012-0.003c0.13 0.035 0.242 0.094 0.339 0.173l-0.002-0.001c0.083 0.072 0.148 0.163 0.19 0.265l0.002 0.005c0.045 0.112 0.067 0.232 0.065 0.352 0 0.003 0 0.007 0 0.011 0 0.123-0.026 0.24-0.073 0.346l0.002-0.005c-0.049 0.11-0.119 0.202-0.206 0.274l-0.001 0.001c-0.095 0.080-0.208 0.143-0.332 0.181l-0.007 0.002c-0.129 0.041-0.277 0.064-0.431 0.064-0.011 0-0.021-0-0.031-0l-0.462-0.007zM15.841 30.342h0.463c0.004 0 0.008 0 0.012 0 0.102 0 0.199-0.015 0.292-0.044l-0.007 0.002c0.083-0.027 0.154-0.067 0.215-0.119l-0.001 0.001c0.056-0.049 0.1-0.11 0.129-0.179l0.001-0.003c0.029-0.066 0.046-0.143 0.046-0.224 0-0.003-0-0.005-0-0.007v0c0.001-0.009 0.001-0.019 0.001-0.029 0-0.070-0.014-0.137-0.041-0.198l0.001 0.003c-0.032-0.074-0.077-0.137-0.133-0.188l-0-0c-0.146-0.109-0.33-0.162-0.515-0.148h-0.463v1.134zM20.987 31.673h-0.302c-0.002 0-0.003 0-0.005 0-0.030 0-0.057-0.010-0.079-0.026l0 0c-0.021-0.017-0.038-0.038-0.049-0.063l-0-0.001-0.26-0.666h-1.307l-0.27 0.666c-0.011 0.025-0.027 0.046-0.047 0.062l-0 0c-0.022 0.017-0.051 0.027-0.081 0.027-0.002 0-0.003-0-0.005-0h-0.302l1.148-2.756h0.398l1.164 2.756zM19.092 30.65h1.080l-0.456-1.122c-0.030-0.070-0.060-0.157-0.083-0.245l-0.003-0.014-0.044 0.144c-0.015 0.049-0.029 0.088-0.045 0.126l0.003-0.009-0.452 1.12zM22.641 28.931c0.023 0.012 0.042 0.029 0.057 0.049l0 0 1.675 2.077v-2.139h0.343v2.756h-0.191c-0.002 0-0.003 0-0.005 0-0.027 0-0.052-0.006-0.074-0.017l0.001 0c-0.024-0.013-0.044-0.030-0.061-0.051l-0-0-1.673-2.075c0.001 0.014 0.001 0.031 0.001 0.047s-0 0.033-0.002 0.050l0-0.002v2.048h-0.343v-2.756h0.203c0.001-0 0.003-0 0.005-0 0.023 0 0.045 0.005 0.065 0.013l-0.001-0zM27.537 30.577v1.094h-0.383v-1.094l-1.059-1.66h0.343c0.002-0 0.005-0 0.008-0 0.028 0 0.054 0.009 0.075 0.024l-0-0c0.020 0.017 0.038 0.038 0.051 0.061l0.001 0.001 0.662 1.071c0.020 0.033 0.043 0.075 0.064 0.118l0.004 0.010c0.019 0.040 0.034 0.078 0.048 0.117l0.050-0.119c0.021-0.049 0.043-0.091 0.068-0.13l-0.002 0.004 0.653-1.078c0.014-0.022 0.031-0.041 0.049-0.058l0-0c0.021-0.017 0.047-0.027 0.076-0.027 0.002 0 0.004 0 0.006 0h0.346l-1.060 1.667zM11.971 24.293c0.167 0.020 0.335 0.036 0.505 0.051 2.583-1.101 4.768-2.902 6.282-5.18s2.29-4.929 2.231-7.624l-2.846-2.712c0.579 2.869 0.308 5.836-0.782 8.567s-2.956 5.12-5.389 6.898z"></path>
<path  d="M10.955 24.167l0.077 0.015c2.6-1.772 4.583-4.247 5.691-7.104s1.292-5.965 0.526-8.922l-4.054-3.862c1.64 3.175 2.3 6.728 1.903 10.246s-1.833 6.857-4.143 9.628zM24.704 14.725c-0.689 2.961-2.362 5.632-4.77 7.616-0.665 0.554-1.406 1.067-2.192 1.511l-0.075 0.039c1.961-0.549 3.764-1.52 5.269-2.838s2.672-2.947 3.412-4.763l-1.644-1.565z"></path>
<path  d="M24.059 14.289l-2.341-2.23c-0.045 2.543-0.804 5.028-2.197 7.197s-3.372 3.943-5.729 5.137h0.012c0.554-0 1.1-0.033 1.637-0.096l-0.065 0.006c2.203-0.857 4.148-2.219 5.664-3.967s2.553-3.825 3.021-6.047zM11.294 2.664l-2.793-2.664c-2.497 0.919-4.644 2.535-6.161 4.636s-2.332 4.589-2.34 7.139c0.009 2.818 1.005 5.552 2.829 7.77s4.372 3.793 7.242 4.476c2.561-2.973 4.061-6.647 4.281-10.488s-0.851-7.648-3.058-10.869zM30.512 13.878c-0.010-3.343-1.408-6.546-3.89-8.91s-5.843-3.696-9.352-3.706c-1.621-0.002-3.229 0.284-4.741 0.841l17.099 16.291c0.586-1.44 0.885-2.971 0.884-4.515z"></path>
</symbol>
<symbol id="icon-logo-4-1" viewBox="0 0 60 32">
<path  d="M9.23 9.548h-0.002c-1.684 0-3.048 1.33-3.048 2.971v0.002c0 1.641 1.365 2.971 3.048 2.971h0.002c1.684 0 3.048-1.33 3.048-2.971v-0.002c0-1.641-1.365-2.971-3.048-2.971zM31.73 8.599c-0.005-2.279-0.936-4.463-2.589-6.074s-3.894-2.519-6.233-2.524c-2.339 0.004-4.581 0.911-6.235 2.523s-2.586 3.796-2.59 6.076v12.566s17.645-1.915 17.647-12.564v-0.002zM0 25.289c0.004 1.586 0.652 3.105 1.803 4.226s2.709 1.753 4.336 1.758c1.627-0.005 3.185-0.636 4.336-1.757s1.799-2.64 1.803-4.225v-8.744s-12.278 1.334-12.278 8.742zM6.139 26.856c-0 0-0.001 0-0.002 0-0.331 0-0.64-0.099-0.898-0.268l0.006 0.004c-0.264-0.172-0.47-0.417-0.592-0.703-0.077-0.177-0.122-0.383-0.122-0.599 0-0.108 0.011-0.214 0.033-0.316l-0.002 0.010c0.067-0.317 0.223-0.591 0.44-0.802l0-0c0.22-0.213 0.5-0.365 0.813-0.427l0.010-0.002c0.094-0.019 0.203-0.030 0.313-0.030 0.222 0 0.433 0.044 0.626 0.123l-0.011-0.004c0.294 0.119 0.545 0.319 0.721 0.577s0.271 0.561 0.271 0.87c0 0.002 0 0.004 0 0.006 0 0.215-0.044 0.42-0.124 0.606l0.004-0.010c-0.085 0.199-0.203 0.368-0.348 0.51l-0 0c-0.146 0.143-0.319 0.258-0.512 0.337l-0.011 0.004c-0.182 0.076-0.394 0.12-0.616 0.12-0 0-0 0-0.001 0h0v-0.006zM18.671 25.884h-1.256v1.297h-0.654v-3.174h2.067v0.53h-1.413v0.82h1.256v0.528zM21.815 25.666c0 0.312-0.055 0.587-0.166 0.822s-0.269 0.417-0.475 0.545c-0.205 0.128-0.44 0.192-0.706 0.192-0.263 0-0.498-0.063-0.704-0.19s-0.366-0.307-0.48-0.541c-0.113-0.235-0.171-0.506-0.172-0.811v-0.157c0-0.312 0.056-0.587 0.168-0.824 0.113-0.238 0.273-0.421 0.477-0.547 0.206-0.128 0.442-0.192 0.706-0.192s0.499 0.064 0.704 0.192c0.206 0.126 0.366 0.309 0.477 0.547 0.113 0.237 0.17 0.511 0.17 0.822v0.142zM21.152 25.522c0-0.333-0.060-0.586-0.179-0.759s-0.289-0.259-0.51-0.259c-0.22 0-0.389 0.086-0.508 0.257-0.119 0.17-0.18 0.42-0.181 0.75v0.155c0 0.324 0.060 0.576 0.179 0.754s0.291 0.268 0.515 0.268c0.219 0 0.388-0.086 0.506-0.257 0.118-0.173 0.177-0.424 0.179-0.754v-0.155zM23.936 26.348c0-0.124-0.044-0.218-0.131-0.283-0.087-0.067-0.244-0.137-0.471-0.209-0.227-0.074-0.406-0.147-0.539-0.218-0.36-0.195-0.541-0.457-0.541-0.787 0-0.172 0.048-0.324 0.144-0.458 0.097-0.135 0.236-0.241 0.416-0.316 0.182-0.076 0.385-0.113 0.61-0.113 0.227 0 0.429 0.041 0.606 0.124 0.177 0.081 0.315 0.197 0.412 0.347 0.099 0.15 0.148 0.32 0.148 0.51h-0.654c0-0.145-0.046-0.258-0.137-0.338-0.092-0.081-0.22-0.122-0.386-0.122-0.16 0-0.284 0.034-0.373 0.102-0.089 0.067-0.133 0.156-0.133 0.266 0 0.103 0.052 0.19 0.155 0.259 0.105 0.070 0.258 0.135 0.46 0.196 0.372 0.112 0.643 0.251 0.813 0.416s0.255 0.372 0.255 0.619c0 0.275-0.104 0.491-0.312 0.648-0.208 0.156-0.488 0.233-0.839 0.233-0.244 0-0.467-0.044-0.667-0.133-0.201-0.090-0.354-0.213-0.46-0.368-0.105-0.156-0.157-0.336-0.157-0.541h0.656c0 0.35 0.209 0.525 0.628 0.525 0.156 0 0.277-0.031 0.364-0.094 0.087-0.064 0.131-0.153 0.131-0.266zM27.427 24.536h-0.972v2.645h-0.654v-2.645h-0.959v-0.53h2.586v0.53zM29.712 25.805h-1.256v0.85h1.474v0.525h-2.128v-3.174h2.124v0.53h-1.469v0.757h1.256v0.512zM31.489 26.019h-0.521v1.162h-0.654v-3.174h1.179c0.375 0 0.664 0.084 0.868 0.251s0.305 0.403 0.305 0.709c0 0.217-0.047 0.397-0.142 0.543-0.093 0.144-0.235 0.259-0.425 0.344l0.687 1.297v0.030h-0.702l-0.595-1.162zM30.968 25.489h0.528c0.164 0 0.291-0.041 0.382-0.124 0.090-0.084 0.135-0.2 0.135-0.347 0-0.15-0.043-0.267-0.129-0.353-0.084-0.086-0.214-0.129-0.39-0.129h-0.525v0.953zM34.931 26.063v1.118h-0.654v-3.174h1.238c0.238 0 0.448 0.044 0.628 0.131 0.182 0.087 0.321 0.212 0.419 0.373 0.097 0.16 0.146 0.342 0.146 0.547 0 0.311-0.107 0.557-0.321 0.737-0.212 0.179-0.507 0.268-0.883 0.268h-0.573zM34.931 25.533h0.584c0.173 0 0.305-0.041 0.395-0.122 0.092-0.081 0.137-0.198 0.137-0.349 0-0.156-0.046-0.281-0.137-0.377s-0.218-0.145-0.379-0.148h-0.6v0.996zM39.069 25.805h-1.256v0.85h1.474v0.525h-2.128v-3.174h2.124v0.53h-1.469v0.757h1.256v0.512zM42.104 24.536h-0.972v2.645h-0.654v-2.645h-0.959v-0.53h2.586v0.53zM44.389 25.805h-1.256v0.85h1.474v0.525h-2.128v-3.174h2.124v0.53h-1.47v0.757h1.256v0.512zM46.166 26.019h-0.521v1.162h-0.654v-3.174h1.18c0.375 0 0.664 0.084 0.868 0.251s0.305 0.403 0.305 0.709c0 0.217-0.047 0.397-0.142 0.543-0.093 0.144-0.235 0.259-0.425 0.344l0.687 1.297v0.030h-0.702l-0.595-1.162zM45.645 25.489h0.528c0.164 0 0.291-0.041 0.382-0.124 0.090-0.084 0.135-0.2 0.135-0.347 0-0.15-0.043-0.267-0.129-0.353-0.084-0.086-0.214-0.129-0.39-0.129h-0.525v0.953zM49.489 26.348c0-0.124-0.044-0.218-0.131-0.283-0.087-0.067-0.244-0.137-0.471-0.209-0.227-0.074-0.406-0.147-0.538-0.218-0.36-0.195-0.541-0.457-0.541-0.787 0-0.172 0.048-0.324 0.144-0.458 0.097-0.135 0.236-0.241 0.416-0.316 0.182-0.076 0.385-0.113 0.61-0.113 0.227 0 0.429 0.041 0.606 0.124 0.177 0.081 0.315 0.197 0.412 0.347 0.099 0.15 0.148 0.32 0.148 0.51h-0.654c0-0.145-0.046-0.258-0.137-0.338-0.092-0.081-0.22-0.122-0.386-0.122-0.16 0-0.284 0.034-0.373 0.102-0.089 0.067-0.133 0.156-0.133 0.266 0 0.103 0.052 0.19 0.155 0.259 0.105 0.070 0.258 0.135 0.46 0.196 0.372 0.112 0.643 0.251 0.813 0.416s0.255 0.372 0.255 0.619c0 0.275-0.104 0.491-0.312 0.648-0.208 0.156-0.488 0.233-0.839 0.233-0.244 0-0.467-0.044-0.667-0.133-0.201-0.090-0.354-0.213-0.46-0.368-0.105-0.156-0.157-0.336-0.157-0.541h0.656c0 0.35 0.209 0.525 0.628 0.525 0.156 0 0.277-0.031 0.364-0.094 0.087-0.064 0.131-0.153 0.131-0.266z"></path>
</symbol>
<symbol id="icon-logo-5-1" viewBox="0 0 40 32">
<path  d="M3.055 26.742c0.157 0.195 0.24 0.438 0.236 0.688 0.001 0.016 0.001 0.035 0.001 0.053 0 0.153-0.031 0.298-0.088 0.43l0.003-0.007c-0.066 0.155-0.161 0.286-0.28 0.392l-0.001 0.001c-0.262 0.2-0.594 0.321-0.954 0.321-0.038 0-0.075-0.001-0.112-0.004l0.005 0h-1.865v-4.361h1.827c0.031-0.002 0.067-0.003 0.103-0.003 0.341 0 0.657 0.11 0.913 0.296l-0.004-0.003c0.118 0.099 0.211 0.224 0.273 0.366s0.089 0.296 0.081 0.45c0.001 0.014 0.001 0.029 0.001 0.045 0 0.235-0.080 0.452-0.215 0.624l0.002-0.002c-0.139 0.169-0.33 0.291-0.549 0.34l-0.007 0.001c0.247 0.045 0.471 0.177 0.63 0.373zM0.868 26.084h0.781c0.016 0.001 0.035 0.002 0.054 0.002 0.167 0 0.32-0.055 0.444-0.148l-0.002 0.001c0.104-0.095 0.169-0.232 0.169-0.384 0-0.015-0.001-0.030-0.002-0.044l0 0.002c0.001-0.011 0.001-0.024 0.001-0.037 0-0.153-0.064-0.291-0.167-0.389l-0-0c-0.124-0.093-0.281-0.149-0.45-0.149-0.021 0-0.043 0.001-0.064 0.003l0.003-0h-0.768v1.144zM2.222 27.756c0.114-0.1 0.186-0.246 0.186-0.409 0-0.012-0-0.024-0.001-0.036l0 0.002c0.001-0.009 0.001-0.020 0.001-0.031 0-0.166-0.073-0.315-0.189-0.416l-0.001-0.001c-0.132-0.099-0.299-0.159-0.48-0.159-0.018 0-0.035 0.001-0.053 0.002l0.002-0h-0.819v1.199h0.83c0.014 0.001 0.031 0.001 0.047 0.001 0.179 0 0.344-0.057 0.479-0.154l-0.002 0.002zM6.79 28.617l-1.016-1.704h-0.382v1.704h-0.874v-4.361h1.655c0.034-0.003 0.074-0.004 0.113-0.004 0.396 0 0.759 0.142 1.041 0.377l-0.003-0.002c0.231 0.237 0.371 0.549 0.393 0.879 0.002 0.028 0.003 0.062 0.003 0.095 0 0.313-0.103 0.601-0.276 0.834l0.003-0.004c-0.199 0.228-0.472 0.388-0.781 0.442l-0.008 0.001 1.082 1.743h-0.951zM5.391 26.318h0.715c0.496 0 0.745-0.22 0.745-0.66 0.001-0.011 0.001-0.024 0.001-0.037 0-0.176-0.070-0.336-0.184-0.453l0 0c-0.133-0.112-0.306-0.18-0.495-0.18-0.024 0-0.047 0.001-0.070 0.003l0.003-0h-0.724l0.008 1.327zM11.568 27.739h-1.742l-0.308 0.878h-0.917l1.6-4.312h0.991l1.594 4.312h-0.917l-0.301-0.878zM11.335 27.079l-0.637-1.841-0.637 1.841h1.273zM17.55 28.617h-0.868l-1.946-2.965v2.965h-0.866v-4.361h0.866l1.946 2.983v-2.983h0.868v4.361zM22.502 27.573c-0.182 0.33-0.45 0.593-0.775 0.764l-0.010 0.005c-0.335 0.174-0.732 0.276-1.153 0.276-0.024 0-0.047-0-0.071-0.001l0.003 0h-1.545v-4.361h1.545c0.020-0.001 0.044-0.001 0.068-0.001 0.42 0 0.816 0.099 1.167 0.276l-0.015-0.007c0.335 0.172 0.603 0.433 0.78 0.751l0.005 0.009c0.171 0.333 0.272 0.727 0.272 1.144 0 0 0 0 0 0v0c0 0 0 0 0 0 0 0.417-0.1 0.811-0.278 1.158l0.007-0.014zM21.509 27.469c0.239-0.278 0.384-0.642 0.384-1.040 0-0 0-0 0-0v0c0-0.382-0.136-0.751-0.384-1.041-0.263-0.232-0.611-0.374-0.992-0.374-0.033 0-0.066 0.001-0.098 0.003l0.004-0h-0.603v2.823h0.603c0.028 0.002 0.061 0.003 0.094 0.003 0.381 0 0.729-0.142 0.994-0.375l-0.002 0.001zM12.111 0s11.201 4.246 10.963 10.39v10.392s-11.193-4.248-10.959-10.392l-0.004-10.39zM33.054 18.349c2.005-1.402 4.428-2.345 7.049-2.627l0.067-0.006v-3.253c-2.943 1.139-5.44 3.204-7.117 5.886z"></path>
<path  d="M31.783 19.329c1.731-3.5 4.733-6.202 8.388-7.548v-9.374s-15.952 6.048-15.614 14.797v14.795s0.711-0.271 1.829-0.778c0-0.473 0-0.95 0.051-1.429 0.33-4.062 2.253-7.826 5.347-10.464z"></path>
<path  d="M30.266 24.825c0.084-1.026 0.271-2.041 0.558-3.029-1.926 2.279-3.093 5.106-3.335 8.085-0.023 0.281-0.036 0.562-0.043 0.852 1.299-0.625 2.304-1.165 3.286-1.741l-0.218 0.118c-0.191-0.909-0.3-1.953-0.3-3.022 0-0.444 0.019-0.884 0.056-1.318l-0.004 0.057zM30.9 24.878c-0.031 0.359-0.049 0.778-0.049 1.2 0 0.947 0.090 1.874 0.261 2.771l-0.015-0.092c4.358-2.618 9.255-6.664 9.066-11.553v-0.426c-3.114 0.35-6.027 1.716-8.292 3.89-0.501 1.234-0.847 2.664-0.968 4.157l-0.003 0.052z"></path>
</symbol>
<symbol id="icon-logo-6-1" viewBox="0 0 62 32">
<path  d="M31.124 14.854c-0.291-0.424-0.43-0.926-0.397-1.431v-2.075c0-0.636 0.132-1.119 0.395-1.45s0.715-0.495 1.356-0.494c0.602 0 1.029 0.141 1.282 0.422 0.276 0.359 0.41 0.798 0.379 1.241v0.488h-1.077v-0.494c0.001-0.019 0.001-0.042 0.001-0.065 0-0.148-0.012-0.293-0.034-0.434l0.002 0.016c-0.017-0.115-0.073-0.214-0.153-0.287l-0-0c-0.095-0.071-0.215-0.114-0.345-0.114-0.016 0-0.031 0.001-0.047 0.002l0.002-0c-0.148-0.010-0.294 0.032-0.41 0.118-0.094 0.085-0.156 0.196-0.178 0.317-0.027 0.142-0.043 0.305-0.043 0.472 0 0.014 0 0.029 0 0.043l-0-0.002v2.518c-0.002 0.029-0.003 0.062-0.003 0.096 0 0.223 0.052 0.433 0.145 0.619l-0.004-0.008c0.055 0.075 0.127 0.134 0.212 0.17l0.003 0.001c0.063 0.028 0.136 0.044 0.213 0.044 0.023 0 0.045-0.001 0.067-0.004l-0.003 0c0.138 0.011 0.275-0.030 0.381-0.114 0.088-0.082 0.144-0.19 0.161-0.306 0.022-0.136 0.034-0.293 0.034-0.452 0-0.018-0-0.037-0.001-0.055l0 0.003v-0.511h1.077v0.466c0.030 0.462-0.101 0.92-0.372 1.304-0.248 0.308-0.669 0.462-1.289 0.462s-1.088-0.165-1.353-0.507zM35.607 14.876c-0.272-0.323-0.408-0.794-0.408-1.416v-2.182c0-0.616 0.136-1.083 0.408-1.399s0.727-0.474 1.364-0.473c0.633 0 1.086 0.158 1.358 0.473 0.272 0.317 0.41 0.783 0.41 1.399v2.182c0 0.616-0.138 1.089-0.415 1.414s-0.727 0.488-1.353 0.488-1.090-0.165-1.364-0.485zM37.473 14.352c0.097-0.202 0.142-0.424 0.129-0.646v-2.672c0.001-0.022 0.002-0.047 0.002-0.072 0-0.204-0.048-0.397-0.133-0.568l0.003 0.007c-0.056-0.076-0.13-0.136-0.217-0.173l-0.003-0.001c-0.062-0.027-0.134-0.042-0.21-0.042-0.026 0-0.052 0.002-0.077 0.005l0.003-0c-0.022-0.003-0.047-0.005-0.073-0.005-0.077 0-0.149 0.016-0.216 0.044l0.004-0.001c-0.090 0.038-0.165 0.097-0.22 0.172l-0.001 0.001c-0.083 0.163-0.132 0.355-0.132 0.559 0 0.026 0.001 0.052 0.002 0.078l-0-0.004v2.685c-0.002 0.023-0.002 0.050-0.002 0.078 0 0.207 0.049 0.402 0.135 0.576l-0.003-0.008c0.062 0.067 0.138 0.121 0.223 0.158l0.004 0.002c0.087 0.037 0.181 0.057 0.277 0.057s0.19-0.019 0.277-0.057c0.089-0.039 0.165-0.093 0.227-0.16l0-0v-0.013zM40.035 9.468h1.159l0.872 4.027 0.892-4.027h1.128l0.114 5.812h-0.834l-0.089-4.040-0.861 4.040h-0.669l-0.892-4.054-0.082 4.054h-0.843l0.105-5.812zM45.5 9.468h1.806c1.040 0 1.561 0.55 1.561 1.65 0 1.054-0.548 1.58-1.643 1.579h-0.615v2.583h-1.115l0.007-5.812zM47.043 11.952c0.11 0.013 0.222 0.004 0.328-0.028 0.11-0.033 0.205-0.087 0.286-0.156l-0.001 0.001c0.128-0.196 0.184-0.427 0.161-0.656 0.001-0.019 0.001-0.042 0.001-0.065 0-0.164-0.020-0.324-0.057-0.476l0.003 0.014c-0.017-0.061-0.046-0.115-0.083-0.16l0.001 0.001c-0.039-0.047-0.085-0.087-0.138-0.116l-0.002-0.001c-0.129-0.060-0.279-0.095-0.438-0.095-0.021 0-0.041 0.001-0.062 0.002l0.003-0h-0.433v1.737h0.433zM50.474 9.468h1.197l1.228 5.812h-1.039l-0.243-1.34h-1.068l-0.25 1.34h-1.055l1.228-5.812zM51.497 13.267l-0.417-2.44-0.417 2.44h0.834zM53.891 9.468h0.78l1.494 3.316v-3.316h0.925v5.812h-0.742l-1.503-3.461v3.461h-0.956l0.002-5.812zM59.258 13.064l-1.242-3.588h1.046l0.758 2.305 0.711-2.305h1.023l-1.226 3.588v2.216h-1.070v-2.216zM32.845 17.822v0.304h-0.91v2.362h-0.381v-2.362h-0.914v-0.304h2.205zM35.697 20.488h-0.294c-0.002 0-0.005 0-0.007 0-0.028 0-0.054-0.010-0.075-0.026l0 0c-0.022-0.015-0.039-0.036-0.049-0.060l-0-0.001-0.263-0.633h-1.262l-0.263 0.633c-0.008 0.028-0.022 0.052-0.040 0.072l0-0c-0.021 0.016-0.048 0.025-0.076 0.025-0.002 0-0.004-0-0.006-0h-0.294l1.115-2.666h0.388l1.128 2.655zM33.851 19.498h1.052l-0.446-1.085c-0.028-0.067-0.056-0.151-0.079-0.237l-0.003-0.014c-0.016 0.051-0.029 0.099-0.042 0.141l-0.040 0.112-0.441 1.083zM37.618 20.226c0.070 0.003 0.14 0.003 0.21 0 0.067-0.007 0.128-0.018 0.186-0.033l-0.008 0.002c0.064-0.015 0.117-0.032 0.169-0.052l-0.009 0.003c0.049-0.019 0.098-0.042 0.149-0.065v-0.599h-0.446c-0.001 0-0.003 0-0.004 0-0.021 0-0.041-0.008-0.056-0.021l0 0c-0.014-0.011-0.022-0.028-0.022-0.047 0-0.001 0-0.001 0-0.002v0-0.205h0.865v1.022c-0.064 0.044-0.137 0.086-0.213 0.122l-0.010 0.004c-0.069 0.033-0.151 0.064-0.237 0.088l-0.011 0.003c-0.079 0.023-0.173 0.042-0.27 0.054l-0.009 0.001c-0.097 0.011-0.209 0.017-0.323 0.017-0.001 0-0.002 0-0.002 0h0c-0.004 0-0.008 0-0.013 0-0.197 0-0.386-0.036-0.56-0.103l0.011 0.004c-0.173-0.067-0.321-0.161-0.447-0.279l0.001 0.001c-0.12-0.117-0.217-0.258-0.284-0.414l-0.003-0.008c-0.065-0.158-0.103-0.342-0.103-0.535 0-0.006 0-0.013 0-0.019v0.001c-0-0.005-0-0.012-0-0.018 0-0.194 0.037-0.379 0.104-0.55l-0.004 0.010c0.069-0.165 0.166-0.306 0.287-0.422l0-0c0.125-0.117 0.273-0.211 0.437-0.273l0.009-0.003c0.172-0.063 0.37-0.099 0.576-0.099 0.007 0 0.015 0 0.022 0h-0.001c0.104-0 0.207 0.008 0.31 0.023 0.091 0.014 0.18 0.037 0.265 0.068s0.159 0.066 0.228 0.109l-0.005-0.003c0.068 0.042 0.133 0.088 0.194 0.139l-0.107 0.165c-0.009 0.015-0.021 0.028-0.036 0.036l-0 0c-0.015 0.009-0.032 0.014-0.051 0.014h-0c-0.026-0.001-0.050-0.009-0.070-0.021l0.001 0c-0.044-0.023-0.080-0.044-0.114-0.066l0.005 0.003c-0.042-0.026-0.092-0.050-0.143-0.070l-0.007-0.002c-0.057-0.023-0.126-0.043-0.197-0.058l-0.008-0.001c-0.081-0.015-0.174-0.023-0.269-0.023-0.005 0-0.010 0-0.015 0h0.001c-0.004-0-0.009-0-0.013-0-0.15 0-0.293 0.027-0.425 0.077l0.008-0.003c-0.128 0.049-0.237 0.121-0.328 0.211l0-0c-0.092 0.096-0.163 0.209-0.207 0.331-0.047 0.132-0.075 0.285-0.075 0.444s0.027 0.312 0.078 0.454l-0.003-0.009c0.049 0.125 0.125 0.24 0.223 0.336 0.091 0.091 0.202 0.163 0.326 0.211 0.106 0.036 0.228 0.056 0.355 0.056 0.031 0 0.061-0.001 0.091-0.004l-0.004 0zM41.172 20.184h1.217v0.304h-1.59v-2.666h0.381l-0.009 2.362zM43.656 20.488h-0.381v-2.666h0.381v2.666zM45.074 17.834c0.023 0.012 0.042 0.029 0.058 0.048l0 0 1.63 2.009c-0.001-0.014-0.002-0.031-0.002-0.047s0.001-0.033 0.002-0.050l-0 0.002v-1.986h0.332v2.676h-0.192c-0.004 0-0.008 0-0.013 0-0.025 0-0.049-0.006-0.071-0.016l0.001 0c-0.023-0.014-0.043-0.030-0.060-0.050l-0-0-1.628-2.007v2.073h-0.319v-2.666h0.198c0.023 0 0.044 0.005 0.063 0.013l-0.001-0zM49.901 17.822v0.293h-1.351v0.88h1.095v0.283h-1.095v0.91h1.351v0.293h-1.743v-2.659h1.743zM9.95 1.359l16.929 4.55v15.946l-16.929-4.548v-15.948zM8.864 0v18.082l19.098 5.135v-18.080l-19.098-5.137z"></path>
<path  d="M19.1 31.611l-19.1-5.139v-18.080l19.1 5.137v18.082z"></path>
<path  d="M9.181 1.155l16.708 4.493-7.105 6.729-16.71-4.496 7.108-6.726zM8.864 0l-8.864 8.392 19.1 5.137 8.862-8.392-19.098-5.137zM20.175 30.593l7.788-7.374-7.788-2.096v9.47z"></path>
</symbol>
</defs>
</svg>
